<svg width="17" height="14" viewBox="0 0 17 14" fill="none" xmlns="http://www.w3.org/2000/svg">
<path fill-rule="evenodd" clip-rule="evenodd" d="M16.781 8.58563C16.9243 8.07615 17 7.54536 17 7C17 3.13401 13.1944 0 8.5 0C3.80558 0 0 3.13401 0 7C0 10.2668 2.71732 13.0109 6.39211 13.7831L6.98239 10.3005L5.16473 7.2772L6.40632 6.58272L7.31556 8.33488L7.65116 6.35486L9.04828 6.63694L8.23421 10.1052L10.184 13.8626C11.1209 13.7076 12.0021 13.4256 12.7999 13.0396C12.3035 12.5043 12 11.7876 12 11C12 9.34315 13.3431 8 15 8C15.6669 8 16.2829 8.21758 16.781 8.58563ZM9.19284 13.9771L7.84975 11.7431L7.33532 13.9348C7.71609 13.9778 8.1049 14 8.5 14C8.73326 14 8.96432 13.9923 9.19284 13.9771ZM9.65908 3.61162C9.57013 4.05219 9.15571 4.30735 8.76991 4.22946C8.3841 4.15157 8.17301 3.77011 8.26196 3.32954C8.35091 2.88897 8.94241 2.35993 9.22895 2.14104C9.40812 2.45396 9.74803 3.17105 9.65908 3.61162ZM4.63059 4.94014C4.97345 4.74836 5.12148 4.28571 4.90248 3.89419C4.68348 3.50266 3.9599 3.18045 3.6208 3.05989C3.54604 3.41195 3.44189 4.19714 3.66089 4.58867C3.87989 4.9802 4.28774 5.13191 4.63059 4.94014ZM9.08394 5.01991L8.24567 4.85067L7.7862 5.68603L9.18331 5.96811L9.08394 5.01991ZM4.6373 5.75142L5.38225 5.33473L6.07385 5.98834L4.83226 6.68282L4.6373 5.75142Z" fill="white"/>
</svg>
