<svg width="24" height="24" viewBox="0 0 24 24" fill="none" xmlns="http://www.w3.org/2000/svg">
<path fill-rule="evenodd" clip-rule="evenodd" d="M21.7552 13.8121C21.9154 13.2299 22 12.6233 22 12C22 7.58172 17.7467 4 12.5 4C7.25329 4 3 7.58172 3 12C3 15.7335 6.03701 18.8696 10.1441 19.7521L10.8039 15.772L8.77235 12.3168L10.16 11.5231L11.1762 13.5256L11.5513 11.2627L13.1128 11.5851L12.2029 15.5488L14.3821 19.843C15.4292 19.6658 16.4141 19.3436 17.3058 18.9023C16.751 18.2906 16.4118 17.4715 16.4118 16.5714C16.4118 14.6779 17.9129 13.1429 19.7647 13.1429C20.51 13.1429 21.1985 13.3915 21.7552 13.8121ZM13.2743 19.9738L11.7733 17.4207L11.1983 19.9255C11.6239 19.9746 12.0584 20 12.5 20C12.7607 20 13.019 19.9912 13.2743 19.9738ZM13.7954 8.12756C13.696 8.63107 13.2329 8.92269 12.8017 8.83367C12.3705 8.74465 12.1345 8.3087 12.234 7.80519C12.3334 7.30168 12.9945 6.69707 13.3147 6.4469C13.515 6.80453 13.8949 7.62405 13.7954 8.12756ZM8.17537 9.64587C8.55856 9.4267 8.72401 8.89796 8.47924 8.4505C8.23448 8.00304 7.42578 7.6348 7.04677 7.49702C6.96322 7.89937 6.84682 8.79674 7.09159 9.24419C7.33635 9.69165 7.79218 9.86504 8.17537 9.64587ZM13.1526 9.73704L12.2157 9.54362L11.7022 10.4983L13.2637 10.8207L13.1526 9.73704ZM8.18286 10.5731L9.01546 10.0968L9.78843 10.8438L8.40077 11.6375L8.18286 10.5731Z" fill="#737373"/>
</svg>
