<svg width="24" height="24" viewBox="0 0 24 24" fill="none" xmlns="http://www.w3.org/2000/svg">
<ellipse cx="11.5" cy="12" rx="8.5" ry="7" fill="#737373"/>
<circle cx="18" cy="16" r="3" fill="white"/>
<path d="M12.8142 8.05694C12.7252 8.49751 12.3108 8.75267 11.925 8.67478C11.5392 8.59689 11.3281 8.21543 11.4171 7.77486C11.506 7.33429 12.0975 6.80525 12.384 6.58636C12.5632 6.89928 12.9031 7.61637 12.8142 8.05694Z" fill="white"/>
<path d="M8.05757 8.33951C8.27657 8.73103 8.12854 9.19368 7.78568 9.38546C7.44283 9.57723 7.03498 9.42552 6.81598 9.03399C6.59698 8.64246 6.70113 7.85727 6.77589 7.50521C7.115 7.62577 7.83857 7.94798 8.05757 8.33951Z" fill="white"/>
<path d="M12.239 9.46521L11.4008 9.29596L10.9413 10.1313L12.3384 10.4134L12.239 9.46521Z" fill="white"/>
<path d="M12.2034 11.0822L10.8062 10.8002L9.28517 19.7743L10.1234 19.9436L12.2034 11.0822Z" fill="white"/>
<path d="M8.53734 9.78005L7.79239 10.1967L7.98735 11.1281L9.22894 10.4337L8.53734 9.78005Z" fill="white"/>
<path d="M9.56141 11.028L8.31982 11.7225L13.001 19.5087L13.746 19.092L9.56141 11.028Z" fill="white"/>
</svg>
