<svg width="24" height="24" viewBox="0 0 24 24" fill="none" xmlns="http://www.w3.org/2000/svg">
<path fill-rule="evenodd" clip-rule="evenodd" d="M3 13C3 12.4477 3.44772 12 4 12H9.7143C10.2666 12 10.7143 12.4477 10.7143 13V19C10.7143 19.5523 10.2666 20 9.7143 20H4C3.44772 20 3 19.5523 3 19V13ZM5.57143 14C5.57143 14.3682 5.28361 14.6667 4.92857 14.6667C4.57353 14.6667 4.28572 14.3682 4.28572 14C4.28572 13.6318 4.57353 13.3333 4.92857 13.3333C5.28361 13.3333 5.57143 13.6318 5.57143 14ZM8.78572 18.6667C9.14076 18.6667 9.42858 18.3682 9.42858 18C9.42858 17.6318 9.14076 17.3333 8.78572 17.3333C8.43068 17.3333 8.14286 17.6318 8.14286 18C8.14286 18.3682 8.43068 18.6667 8.78572 18.6667ZM9.42858 14C9.42858 14.3682 9.14076 14.6667 8.78572 14.6667C8.43068 14.6667 8.14286 14.3682 8.14286 14C8.14286 13.6318 8.43068 13.3333 8.78572 13.3333C9.14076 13.3333 9.42858 13.6318 9.42858 14ZM4.92857 18.6667C5.28361 18.6667 5.57143 18.3682 5.57143 18C5.57143 17.6318 5.28361 17.3333 4.92857 17.3333C4.57353 17.3333 4.28572 17.6318 4.28572 18C4.28572 18.3682 4.57353 18.6667 4.92857 18.6667Z" fill="#737373"/>
<path fill-rule="evenodd" clip-rule="evenodd" d="M13.2857 13C13.2857 12.4477 13.7334 12 14.2857 12H20C20.5523 12 21 12.4477 21 13V19C21 19.5523 20.5523 20 20 20H14.2857C13.7334 20 13.2857 19.5523 13.2857 19V13ZM15.8571 14C15.8571 14.3682 15.5693 14.6667 15.2143 14.6667C14.8592 14.6667 14.5714 14.3682 14.5714 14C14.5714 13.6318 14.8592 13.3333 15.2143 13.3333C15.5693 13.3333 15.8571 13.6318 15.8571 14ZM19.0714 18.6667C19.4265 18.6667 19.7143 18.3682 19.7143 18C19.7143 17.6318 19.4265 17.3333 19.0714 17.3333C18.7164 17.3333 18.4286 17.6318 18.4286 18C18.4286 18.3682 18.7164 18.6667 19.0714 18.6667ZM19.7143 14C19.7143 14.3682 19.4265 14.6667 19.0714 14.6667C18.7164 14.6667 18.4286 14.3682 18.4286 14C18.4286 13.6318 18.7164 13.3333 19.0714 13.3333C19.4265 13.3333 19.7143 13.6318 19.7143 14ZM15.2143 18.6667C15.5693 18.6667 15.8571 18.3682 15.8571 18C15.8571 17.6318 15.5693 17.3333 15.2143 17.3333C14.8592 17.3333 14.5714 17.6318 14.5714 18C14.5714 18.3682 14.8592 18.6667 15.2143 18.6667Z" fill="#737373"/>
<path fill-rule="evenodd" clip-rule="evenodd" d="M8.14285 5C8.14285 4.44772 8.59057 4 9.14285 4H14.8571C15.4094 4 15.8571 4.44772 15.8571 5V11C15.8571 11.5523 15.4094 12 14.8571 12H9.14285C8.59057 12 8.14285 11.5523 8.14285 11V5ZM10.7143 6C10.7143 6.36819 10.4265 6.66667 10.0714 6.66667C9.71639 6.66667 9.42857 6.36819 9.42857 6C9.42857 5.63181 9.71639 5.33333 10.0714 5.33333C10.4265 5.33333 10.7143 5.63181 10.7143 6ZM13.9286 10.6667C14.2836 10.6667 14.5714 10.3682 14.5714 10C14.5714 9.63181 14.2836 9.33333 13.9286 9.33333C13.5735 9.33333 13.2857 9.63181 13.2857 10C13.2857 10.3682 13.5735 10.6667 13.9286 10.6667ZM14.5714 6C14.5714 6.36819 14.2836 6.66667 13.9286 6.66667C13.5735 6.66667 13.2857 6.36819 13.2857 6C13.2857 5.63181 13.5735 5.33333 13.9286 5.33333C14.2836 5.33333 14.5714 5.63181 14.5714 6ZM10.0714 10.6667C10.4265 10.6667 10.7143 10.3682 10.7143 10C10.7143 9.63181 10.4265 9.33333 10.0714 9.33333C9.71639 9.33333 9.42857 9.63181 9.42857 10C9.42857 10.3682 9.71639 10.6667 10.0714 10.6667Z" fill="#737373"/>
</svg>
