<svg width="17" height="14" viewBox="0 0 17 14" fill="none" xmlns="http://www.w3.org/2000/svg">
<path fill-rule="evenodd" clip-rule="evenodd" d="M0 8C0 7.44772 0.447715 7 1 7H6C6.55228 7 7 7.44772 7 8V13C7 13.5523 6.55228 14 6 14H1C0.447715 14 0 13.5523 0 13V8ZM2.33333 8.75C2.33333 9.07217 2.07217 9.33333 1.75 9.33333C1.42783 9.33333 1.16667 9.07217 1.16667 8.75C1.16667 8.42783 1.42783 8.16667 1.75 8.16667C2.07217 8.16667 2.33333 8.42783 2.33333 8.75ZM5.25 12.8333C5.57217 12.8333 5.83333 12.5722 5.83333 12.25C5.83333 11.9278 5.57217 11.6667 5.25 11.6667C4.92783 11.6667 4.66667 11.9278 4.66667 12.25C4.66667 12.5722 4.92783 12.8333 5.25 12.8333ZM5.83333 8.75C5.83333 9.07217 5.57217 9.33333 5.25 9.33333C4.92783 9.33333 4.66667 9.07217 4.66667 8.75C4.66667 8.42783 4.92783 8.16667 5.25 8.16667C5.57217 8.16667 5.83333 8.42783 5.83333 8.75ZM1.75 12.8333C2.07217 12.8333 2.33333 12.5722 2.33333 12.25C2.33333 11.9278 2.07217 11.6667 1.75 11.6667C1.42783 11.6667 1.16667 11.9278 1.16667 12.25C1.16667 12.5722 1.42783 12.8333 1.75 12.8333Z" fill="white"/>
<path fill-rule="evenodd" clip-rule="evenodd" d="M9.33331 8C9.33331 7.44772 9.78103 7 10.3333 7H15.3333C15.8856 7 16.3333 7.44772 16.3333 8V13C16.3333 13.5523 15.8856 14 15.3333 14H10.3333C9.78103 14 9.33331 13.5523 9.33331 13V8ZM11.6666 8.75C11.6666 9.07217 11.4055 9.33333 11.0833 9.33333C10.7611 9.33333 10.5 9.07217 10.5 8.75C10.5 8.42783 10.7611 8.16667 11.0833 8.16667C11.4055 8.16667 11.6666 8.42783 11.6666 8.75ZM14.5833 12.8333C14.9055 12.8333 15.1666 12.5722 15.1666 12.25C15.1666 11.9278 14.9055 11.6667 14.5833 11.6667C14.2611 11.6667 14 11.9278 14 12.25C14 12.5722 14.2611 12.8333 14.5833 12.8333ZM15.1666 8.75C15.1666 9.07217 14.9055 9.33333 14.5833 9.33333C14.2611 9.33333 14 9.07217 14 8.75C14 8.42783 14.2611 8.16667 14.5833 8.16667C14.9055 8.16667 15.1666 8.42783 15.1666 8.75ZM11.0833 12.8333C11.4055 12.8333 11.6666 12.5722 11.6666 12.25C11.6666 11.9278 11.4055 11.6667 11.0833 11.6667C10.7611 11.6667 10.5 11.9278 10.5 12.25C10.5 12.5722 10.7611 12.8333 11.0833 12.8333Z" fill="white"/>
<path fill-rule="evenodd" clip-rule="evenodd" d="M4.66666 1C4.66666 0.447715 5.11437 0 5.66666 0H10.6667C11.2189 0 11.6667 0.447715 11.6667 1V6C11.6667 6.55228 11.2189 7 10.6667 7H5.66666C5.11437 7 4.66666 6.55228 4.66666 6V1ZM6.99999 1.75C6.99999 2.07217 6.73882 2.33333 6.41666 2.33333C6.09449 2.33333 5.83332 2.07217 5.83332 1.75C5.83332 1.42783 6.09449 1.16667 6.41666 1.16667C6.73882 1.16667 6.99999 1.42783 6.99999 1.75ZM9.91666 5.83333C10.2388 5.83333 10.5 5.57217 10.5 5.25C10.5 4.92783 10.2388 4.66667 9.91666 4.66667C9.59449 4.66667 9.33332 4.92783 9.33332 5.25C9.33332 5.57217 9.59449 5.83333 9.91666 5.83333ZM10.5 1.75C10.5 2.07217 10.2388 2.33333 9.91666 2.33333C9.59449 2.33333 9.33332 2.07217 9.33332 1.75C9.33332 1.42783 9.59449 1.16667 9.91666 1.16667C10.2388 1.16667 10.5 1.42783 10.5 1.75ZM6.41666 5.83333C6.73882 5.83333 6.99999 5.57217 6.99999 5.25C6.99999 4.92783 6.73882 4.66667 6.41666 4.66667C6.09449 4.66667 5.83332 4.92783 5.83332 5.25C5.83332 5.57217 6.09449 5.83333 6.41666 5.83333Z" fill="white"/>
</svg>
