<svg width="24" height="24" viewBox="0 0 24 24" fill="none" xmlns="http://www.w3.org/2000/svg">
<rect x="3" y="13.9319" width="6" height="6" rx="1" transform="rotate(-30.4187 3 13.9319)" fill="#737373"/>
<circle cx="5.05298" cy="14.466" r="0.5" transform="rotate(-30.4187 5.05298 14.466)" fill="white"/>
<path d="M7.53714 14.7468C7.67695 14.985 7.59725 15.2914 7.35912 15.4312C7.12099 15.571 6.8146 15.4913 6.67479 15.2532C6.53497 15.015 6.61467 14.7086 6.85281 14.5688C7.09094 14.429 7.39732 14.5087 7.53714 14.7468Z" fill="white"/>
<path d="M8.07119 12.6938C8.21101 12.932 8.13131 13.2384 7.89318 13.3782C7.65505 13.518 7.34866 13.4383 7.20885 13.2002C7.06903 12.962 7.14873 12.6556 7.38686 12.5158C7.62499 12.376 7.93138 12.4557 8.07119 12.6938Z" fill="white"/>
<circle cx="9.15894" cy="15.534" r="0.5" transform="rotate(-30.4187 9.15894 15.534)" fill="white"/>
<circle cx="6.57191" cy="17.053" r="0.5" transform="rotate(-30.4187 6.57191 17.053)" fill="white"/>
<rect x="9" y="8.05792" width="5.94235" height="5.99973" rx="1" transform="rotate(-0.553209 9 8.05792)" fill="#737373"/>
<circle cx="14.5144" cy="13.6926" r="0.5" transform="rotate(-0.553209 14.5144 13.6926)" fill="white"/>
<path d="M16.5288 15.1733C16.5315 15.4494 16.3098 15.6754 16.0336 15.6781C15.7575 15.6807 15.5315 15.459 15.5288 15.1829C15.5262 14.9068 15.7479 14.6808 16.024 14.6781C16.3001 14.6754 16.5261 14.8971 16.5288 15.1733Z" fill="white"/>
<path d="M14.0048 9.49999C14.0075 9.77612 13.7858 10.0021 13.5096 10.0048C13.2335 10.0075 13.0075 9.78577 13.0048 9.50964C13.0022 9.23351 13.2239 9.0075 13.5 9.00484C13.7761 9.00217 14.0021 9.22386 14.0048 9.49999Z" fill="white"/>
<path d="M14.0048 12.5C14.0075 12.7761 13.7858 13.0021 13.5096 13.0048C13.2335 13.0075 13.0075 12.7858 13.0048 12.5096C13.0022 12.2335 13.2239 12.0075 13.5 12.0048C13.7761 12.0022 14.0021 12.2239 14.0048 12.5Z" fill="white"/>
<path d="M11.0048 9.49998C11.0074 9.77611 10.7858 10.0021 10.5096 10.0048C10.2335 10.0075 10.0075 9.78576 10.0048 9.50964C10.0022 9.23351 10.2238 9.0075 10.5 9.00483C10.7761 9.00217 11.0021 9.22385 11.0048 9.49998Z" fill="white"/>
<rect x="12.9236" y="12.2079" width="6.07637" height="5.80219" rx="1" transform="rotate(-0.553209 12.9236 12.2079)" fill="#737373"/>
<path d="M11.0048 12.5C11.0074 12.7761 10.7858 13.0021 10.5096 13.0048C10.2335 13.0075 10.0075 12.7858 10.0048 12.5096C10.0022 12.2335 10.2238 12.0075 10.5 12.0048C10.7761 12.0022 11.0021 12.2239 11.0048 12.5Z" fill="white"/>
<path d="M18.0048 13.5C18.0074 13.7761 17.7858 14.0021 17.5096 14.0048C17.2335 14.0075 17.0075 13.7858 17.0048 13.5096C17.0022 13.2335 17.2238 13.0075 17.5 13.0048C17.7761 13.0022 18.0021 13.2239 18.0048 13.5Z" fill="white"/>
<path d="M15.0048 13.5C15.0074 13.7761 14.7858 14.0021 14.5096 14.0048C14.2335 14.0075 14.0075 13.7858 14.0048 13.5096C14.0022 13.2335 14.2238 13.0075 14.5 13.0048C14.7761 13.0022 15.0021 13.2239 15.0048 13.5Z" fill="white"/>
<circle cx="17.5432" cy="16.6635" r="0.5" transform="rotate(-0.553209 17.5432 16.6635)" fill="white"/>
<circle cx="14.5434" cy="16.6925" r="0.5" transform="rotate(-0.553209 14.5434 16.6925)" fill="white"/>
</svg>
