<svg width="24" height="24" viewBox="0 0 24 24" fill="none" xmlns="http://www.w3.org/2000/svg">
<path d="M5 6H19V20H5V6Z" fill="white"/>
<path d="M5 6V5C4.44772 5 4 5.44772 4 6H5ZM19 6H20C20 5.44772 19.5523 5 19 5V6ZM19 20V21C19.5523 21 20 20.5523 20 20H19ZM5 20H4C4 20.5523 4.44772 21 5 21V20ZM5 7H19V5H5V7ZM18 6V20H20V6H18ZM19 19H5V21H19V19ZM6 20V6H4V20H6Z" fill="#737373"/>
<line x1="8" y1="3" x2="8" y2="5" stroke="#737373" stroke-width="2"/>
<line x1="16" y1="3" x2="16" y2="5" stroke="#737373" stroke-width="2"/>
<line x1="11" y1="9" x2="11" y2="11" stroke="#737373" stroke-width="2"/>
<line x1="15" y1="9" x2="15" y2="11" stroke="#737373" stroke-width="2"/>
<line x1="15" y1="12" x2="15" y2="14" stroke="#737373" stroke-width="2"/>
<line x1="11" y1="12" x2="11" y2="14" stroke="#737373" stroke-width="2"/>
</svg>
