<svg width="24" height="24" viewBox="0 0 24 24" fill="none" xmlns="http://www.w3.org/2000/svg">
<g clip-path="url(#clip0)">
<path d="M11.0603 3.08941C10.3859 2.70004 9.58722 3.26142 9.27218 3.59078L5.16217 10.7095L4.21797 8.12847C3.53795 6.62815 1.27224 6.98161 1.08606 9.08954C2.35298 13.1441 3.34841 17.042 5.3387 18.1911C10.0595 20.9166 13.3768 17.4637 14.4454 15.3966L17.268 10.5078C17.3957 10.0703 17.4825 9.09789 16.8081 8.70853C16.1337 8.31916 15.335 8.88054 15.02 9.2099L16.3482 6.90927C16.476 6.47175 16.5628 5.49938 15.8884 5.11002C15.214 4.72065 14.4153 5.28203 14.1002 5.61139L14.4323 5.03623C14.56 4.59871 14.6468 3.62634 13.9724 3.23698C13.298 2.84761 12.4994 3.40899 12.1843 3.73835L11.5202 4.88866C11.6479 4.45115 11.7347 3.47877 11.0603 3.08941Z" fill="#A8A8A8"/>
<path d="M4.61971 13.5987L7.35207 8.93133L8.14292 13.8936L4.61971 13.5987Z" fill="#A8A8A8"/>
<path d="M14.0603 3.08941C13.3859 2.70004 12.5872 3.26142 12.2722 3.59078L8.16217 10.7095L7.21797 8.12847C6.53795 6.62815 4.27224 6.98161 4.08606 9.08954C5.35298 13.1441 6.34841 17.042 8.3387 18.1911C13.0595 20.9166 16.3768 17.4637 17.4454 15.3966L20.268 10.5078C20.3957 10.0703 20.4825 9.09789 19.8081 8.70853C19.1337 8.31916 18.335 8.88054 18.02 9.2099L19.3482 6.90927C19.476 6.47175 19.5628 5.49938 18.8884 5.11002C18.214 4.72065 17.4153 5.28203 17.1002 5.61139L17.4323 5.03623C17.56 4.59871 17.6468 3.62634 16.9724 3.23698C16.298 2.84761 15.4994 3.40899 15.1843 3.73835L14.5202 4.88866C14.6479 4.45115 14.7347 3.47877 14.0603 3.08941Z" fill="white"/>
<path d="M14.6097 9.92507L17.1002 5.61139M17.1002 5.61139L17.4323 5.03623C17.56 4.59871 17.6468 3.62634 16.9724 3.23698C16.298 2.84761 15.4994 3.40899 15.1843 3.73835L12.3617 8.62718L14.5202 4.88866C14.6479 4.45115 14.7347 3.47877 14.0603 3.08941C13.3859 2.70004 12.5872 3.26142 12.2722 3.59078L8.07283 10.8643M17.1002 5.61139C17.4153 5.28203 18.214 4.72065 18.8884 5.11002C19.5628 5.49938 19.476 6.47176 19.3482 6.90927L18.02 9.2099M16.5257 11.7981L18.02 9.2099M18.02 9.2099C18.335 8.88054 19.1337 8.31916 19.8081 8.70853C20.4825 9.09789 20.3957 10.0703 20.268 10.5078L17.4454 15.3966C16.3768 17.4637 13.0595 20.9166 8.3387 18.1911C6.34841 17.042 5.35298 13.1441 4.08606 9.08954C4.27224 6.98161 6.53795 6.62815 7.21797 8.12847L9.00006 13" stroke="#737373" stroke-width="2"/>
<path d="M7.61971 13.5987L10.3521 8.93133L11.1429 13.8936L7.61971 13.5987Z" fill="white"/>
</g>
<defs>
<clipPath id="clip0">
<rect width="24" height="24" fill="white"/>
</clipPath>
</defs>
</svg>
