<svg width="25" height="24" viewBox="0 0 25 24" fill="none" xmlns="http://www.w3.org/2000/svg">
<path d="M11.0603 4.08941C10.3859 3.70004 9.58716 4.26142 9.27212 4.59078L5.16211 11.7095L4.21791 9.12847C3.53789 7.62815 1.27218 7.98161 1.086 10.0895C2.35292 14.1441 3.34834 18.042 5.33864 19.1911C10.0594 21.9166 13.3768 18.4637 14.4453 16.3966L17.2679 11.5078C17.3956 11.0703 17.4824 10.0979 16.808 9.70853C16.1336 9.31916 15.335 9.88054 15.0199 10.2099L16.3482 7.90927C16.4759 7.47175 16.5627 6.49938 15.8883 6.11002C15.2139 5.72065 14.4152 6.28203 14.1002 6.61139L14.4323 6.03623C14.56 5.59871 14.6468 4.62634 13.9724 4.23698C13.298 3.84761 12.4993 4.40899 12.1843 4.73835L11.5201 5.88866C11.6478 5.45115 11.7347 4.47877 11.0603 4.08941Z" fill="#737373" fill-opacity="0.7"/>
<path d="M4.61965 14.5987L7.35201 9.93133L8.14286 14.8936L4.61965 14.5987Z" fill="#737373" fill-opacity="0.7"/>
<path d="M14.0603 4.08941C13.3859 3.70004 12.5872 4.26142 12.2721 4.59078L8.16211 11.7095L7.21791 9.12847C6.53789 7.62815 4.27218 7.98161 4.086 10.0895C5.35292 14.1441 6.34834 18.042 8.33864 19.1911C13.0594 21.9166 16.3768 18.4637 17.4453 16.3966L20.2679 11.5078C20.3956 11.0703 20.4824 10.0979 19.808 9.70853C19.1336 9.31916 18.335 9.88054 18.0199 10.2099L19.3482 7.90927C19.4759 7.47175 19.5627 6.49938 18.8883 6.11002C18.2139 5.72065 17.4152 6.28203 17.1002 6.61139L17.4323 6.03623C17.56 5.59871 17.6468 4.62634 16.9724 4.23698C16.298 3.84761 15.4993 4.40899 15.1843 4.73835L14.5201 5.88866C14.6478 5.45115 14.7347 4.47877 14.0603 4.08941Z" fill="white"/>
<path d="M14.6097 10.9251L17.1002 6.61139M17.1002 6.61139L17.4323 6.03623C17.56 5.59871 17.6468 4.62634 16.9724 4.23698C16.298 3.84761 15.4993 4.40899 15.1843 4.73835L12.3617 9.62718L14.5201 5.88866C14.6478 5.45115 14.7347 4.47877 14.0603 4.08941C13.3859 3.70004 12.5872 4.26142 12.2721 4.59078L8.07277 11.8643M17.1002 6.61139C17.4152 6.28203 18.2139 5.72065 18.8883 6.11002C19.5627 6.49938 19.4759 7.47176 19.3482 7.90927L18.0199 10.2099M16.5256 12.7981L18.0199 10.2099M18.0199 10.2099C18.335 9.88054 19.1336 9.31916 19.808 9.70853C20.4824 10.0979 20.3956 11.0703 20.2679 11.5078L17.4453 16.3966C16.3768 18.4637 13.0594 21.9166 8.33864 19.1911C6.34834 18.042 5.35292 14.1441 4.086 10.0895C4.27218 7.98161 6.53789 7.62815 7.21791 9.12847L9 14" stroke="#737373" stroke-width="2"/>
<path d="M7.61965 14.5987L10.352 9.93133L11.1429 14.8936L7.61965 14.5987Z" fill="white"/>
</svg>
