<svg width="24" height="24" viewBox="0 0 24 24" fill="none" xmlns="http://www.w3.org/2000/svg">
<path d="M12.5 6L5 8.77778L12.5 11L20 8.77778L12.5 6Z" fill="#737373" stroke="#737373"/>
<path d="M12.5 13.5L7 12V18C7 18.5523 7.44771 19 8 19H17C17.5523 19 18 18.5523 18 18V12L12.5 13.5Z" fill="#737373" stroke="#737373"/>
<path d="M16.0932 7.71694C15.8364 7.61526 15.5459 7.74096 15.4442 7.9977C15.3425 8.25444 15.4682 8.545 15.725 8.64668L16.0932 7.71694ZM15.725 8.64668L20.3159 10.4649L20.6841 9.53513L16.0932 7.71694L15.725 8.64668Z" fill="white"/>
<path d="M20 10V16" stroke="#737373" stroke-linecap="round"/>
</svg>
