<svg width="24" height="24" viewBox="0 0 24 24" fill="none" xmlns="http://www.w3.org/2000/svg">
<circle cx="12" cy="10" r="3" fill="black"/>
<mask id="path-2-inside-1" fill="white">
<path d="M19 10C19 13.866 15 18.5 12 21C9.5 19 5 13.866 5 10C5 6.13401 8.13401 3 12 3C15.866 3 19 6.13401 19 10Z"/>
</mask>
<path d="M12 21L10.7506 22.5617L12.0258 23.5819L13.2804 22.5364L12 21ZM17 10C17 11.3122 16.2855 13.0191 14.9893 14.8614C13.7312 16.6495 12.1077 18.3068 10.7196 19.4636L13.2804 22.5364C14.8923 21.1932 16.7688 19.2835 18.2607 17.1631C19.7145 15.0969 21 12.5538 21 10H17ZM13.2494 19.4383C12.1505 18.5592 10.5265 16.9124 9.19113 15.0389C7.8036 13.0923 7 11.2775 7 10H3C3 12.5885 4.4464 15.2737 5.93387 17.3606C7.47348 19.5206 9.34948 21.4408 10.7506 22.5617L13.2494 19.4383ZM7 10C7 7.23858 9.23858 5 12 5V1C7.02944 1 3 5.02944 3 10H7ZM12 5C14.7614 5 17 7.23858 17 10H21C21 5.02944 16.9706 1 12 1V5Z" fill="black" mask="url(#path-2-inside-1)"/>
</svg>
