<svg id="Layer_1" data-name="Layer 1" xmlns="http://www.w3.org/2000/svg" viewBox="0 0 201.68 158.22">
  <defs>
    <style>
      .cls-1 {
        fill: #fa812a;
      }
    </style>
  </defs>
  <path class="cls-1" d="M222.71,136.18l-23.12,86.3a9.74,9.74,0,1,1-18.81-5l23.12-86.3a9.74,9.74,0,1,1,18.81,5Z" transform="translate(-99.04 -123.92)"/>
  <path class="cls-1" d="M271.19,149.17l-23.12,86.3a9.74,9.74,0,1,1-18.81-5l23.12-86.3a9.74,9.74,0,0,1,18.81,5Z" transform="translate(-99.04 -123.92)"/>
  <path class="cls-1" d="M121.4,188.46l-3.21,12a9.74,9.74,0,0,1-18.82-5l3.22-12a9.74,9.74,0,0,1,18.81,5Z" transform="translate(-99.04 -123.92)"/>
  <circle class="cls-1" cx="191.94" cy="76.7" r="9.74"/>
  <path d="M242.43,181.29l-5,18.75A34.14,34.14,0,0,0,224.64,193c-.37-.14-.77-.24-1.15-.35s-.77-.2-1.16-.27a34.15,34.15,0,0,0-14.6-.25l5-18.75a34.42,34.42,0,0,1,14.59.25l2.31.62A34.4,34.4,0,0,1,242.43,181.29Z" transform="translate(-99.04 -123.92)"/>
  <path d="M284.57,222.1a9.8,9.8,0,0,0-11.63,5.84.64.64,0,0,0-.06.16,57.52,57.52,0,0,1-108.3-37.86l.07-.27,5.77-21.55a9.74,9.74,0,1,0-18.81-5l-5.77,21.55-.07.26A77,77,0,0,0,290.41,236.6c.38-.82.73-1.66,1.08-2.51A9.79,9.79,0,0,0,284.57,222.1Z" transform="translate(-99.04 -123.92)"/>
</svg>
