<svg width="24" height="24" viewBox="0 0 24 24" fill="none" xmlns="http://www.w3.org/2000/svg">
<path d="M20 19L19.3968 19.7976C19.6995 20.0265 20.1056 20.0644 20.4454 19.8953C20.7852 19.7263 21 19.3795 21 19H20ZM16.0333 16L16.6365 15.2024L16.3689 15H16.0333V16ZM4 6H19V4H4V6ZM19 6V16H21V6H19ZM19 16V19H21V16H19ZM20.6032 18.2024L16.6365 15.2024L15.4301 16.7976L19.3968 19.7976L20.6032 18.2024ZM16.0333 15H4V17H16.0333V15ZM4 15V6H2V15H4ZM19 6H21C21 4.89543 20.1046 4 19 4V6ZM4 15H4H2C2 16.1046 2.89543 17 4 17V15ZM4 4C2.89543 4 2 4.89543 2 6H4V6V4Z" fill="#737373"/>
<circle cx="7.5" cy="10.5" r="1.5" fill="#737373"/>
<circle cx="11.5" cy="10.5" r="1.5" fill="#737373"/>
<circle cx="15.5" cy="10.5" r="1.5" fill="#737373"/>
</svg>
