<svg width="24" height="24" viewBox="0 0 24 24" fill="none" xmlns="http://www.w3.org/2000/svg">
<path d="M10 3.22086C10.6667 3.05419 12.4 2.82086 14 3.22086" stroke="white" stroke-width="2"/>
<path d="M14 20H10C10 20.3333 10.4 21.5 12 21.5C13.6 21.5 14 20.3333 14 20Z" fill="white" stroke="white" stroke-width="0.5"/>
<path d="M10.25 4C9.08333 4.33333 6.75 6 6.75 10C6.75 12.9224 6.75 14.5994 6.75 15.4208C6.75 15.7796 6.55771 16.1099 6.24614 16.2879L5.31883 16.8178C5.12168 16.9305 5 17.1401 5 17.3672V17.3672C5 17.7167 5.28331 18 5.63278 18H12" stroke="white" stroke-width="2"/>
<path d="M13.75 4C14.9167 4.33333 17.25 6 17.25 10C17.25 12.9224 17.25 14.5994 17.25 15.4208C17.25 15.7796 17.4423 16.1099 17.7539 16.2879L18.6812 16.8178C18.8783 16.9305 19 17.1401 19 17.3672V17.3672C19 17.7167 18.7167 18 18.3672 18H12" stroke="white" stroke-width="2"/>
</svg>
