<svg width="24" height="24" viewBox="0 0 24 24" fill="none" xmlns="http://www.w3.org/2000/svg">
<path fill-rule="evenodd" clip-rule="evenodd" d="M8.57143 2.11765C8.01914 2.11765 7.57143 2.56536 7.57143 3.11765C7.57143 3.66993 8.01914 4.11765 8.57143 4.11765H17.8571V18.625L19.8571 16.6691V3.11765C19.8571 2.56536 19.4094 2.11765 18.8571 2.11765H8.57143Z" fill="#737373"/>
<path d="M8.57142 3.11765L5.14285 6.47059" stroke="#737373" stroke-width="2"/>
<path fill-rule="evenodd" clip-rule="evenodd" d="M5 5.35294C4.44772 5.35294 4 5.80065 4 6.35294V20C4 20.5523 4.44771 21 5 21H15.5714C16.1237 21 16.5714 20.5523 16.5714 20V5.35294H12V9.82352L10.8571 8.70588L9.71429 9.82352V5.35294H5Z" fill="#737373"/>
</svg>
