<svg width="24" height="24" viewBox="0 0 24 24" fill="none" xmlns="http://www.w3.org/2000/svg">
<path d="M14.334 9.78809C14.334 10.2601 14.1615 10.6491 13.8164 10.9551C13.4714 11.2611 12.9733 11.4499 12.3223 11.5215V12.5811H11.6729V11.5508C10.8656 11.5378 10.2031 11.4141 9.68555 11.1797V10.1494C9.96549 10.2861 10.2926 10.4017 10.667 10.4961C11.0413 10.5872 11.3766 10.6344 11.6729 10.6377V8.81152L11.2627 8.66016C10.7288 8.45508 10.3382 8.21094 10.0908 7.92773C9.84668 7.64128 9.72461 7.28809 9.72461 6.86816C9.72461 6.41895 9.89876 6.04948 10.2471 5.75977C10.5986 5.47005 11.0739 5.29427 11.6729 5.23242V4.41211H12.3223V5.21777C12.9831 5.24056 13.6097 5.37402 14.2021 5.61816L13.8457 6.51172C13.3346 6.3099 12.8268 6.18945 12.3223 6.15039V7.92773L12.6934 8.06934C13.3118 8.30697 13.7399 8.55762 13.9775 8.82129C14.2152 9.08496 14.334 9.40723 14.334 9.78809ZM13.1816 9.86133C13.1816 9.67253 13.1149 9.5179 12.9814 9.39746C12.8512 9.27376 12.6315 9.15495 12.3223 9.04102V10.5986C12.8952 10.5107 13.1816 10.265 13.1816 9.86133ZM10.8721 6.8584C10.8721 7.04395 10.929 7.19857 11.043 7.32227C11.1602 7.44596 11.3701 7.56803 11.6729 7.68848V6.16992C11.4124 6.20898 11.2139 6.28874 11.0771 6.40918C10.9404 6.52962 10.8721 6.67936 10.8721 6.8584Z" fill="#737373"/>
<path d="M18.4474 16.5H10.5526H9V16H19.5L18.4474 16.5Z" fill="#737373"/>
<path d="M19.5 15.5H9V14.5H13.5L14.5 14L15.5 14.5L16.5 14L17.5 14.5L18.5 14L19.5 15.5Z" fill="#737373"/>
<circle cx="7.5" cy="15.5" r="3.5" fill="#737373"/>
<path d="M6 15.5C6 15.7761 5.77614 16 5.5 16C5.22386 16 5 15.7761 5 15.5C5 15.2239 5.22386 15 5.5 15C5.77614 15 6 15.2239 6 15.5Z" fill="white"/>
</svg>
