<svg width="24" height="24" viewBox="0 0 24 24" fill="none" xmlns="http://www.w3.org/2000/svg">
<path fill-rule="evenodd" clip-rule="evenodd" d="M7.06452 20C9.30929 20 11.129 18.2091 11.129 16C11.129 13.7909 9.30929 12 7.06452 12C4.81975 12 3 13.7909 3 16C3 18.2091 4.81975 20 7.06452 20ZM4.74194 16.5714C5.06262 16.5714 5.32258 16.3156 5.32258 16C5.32258 15.6844 5.06262 15.4286 4.74194 15.4286C4.42125 15.4286 4.16129 15.6844 4.16129 16C4.16129 16.3156 4.42125 16.5714 4.74194 16.5714Z" fill="#737373"/>
<path d="M14.1404 8.78809C14.1404 9.26009 13.9679 9.64909 13.6229 9.95508C13.2778 10.2611 12.7798 10.4499 12.1287 10.5215V11.5811H11.4793V10.5508C10.672 10.5378 10.0096 10.4141 9.492 10.1797V9.14941C9.77194 9.28613 10.0991 9.40169 10.4734 9.49609C10.8478 9.58724 11.1831 9.63444 11.4793 9.6377V7.81152L11.0691 7.66016C10.5353 7.45508 10.1447 7.21094 9.89727 6.92773C9.65313 6.64128 9.53106 6.28809 9.53106 5.86816C9.53106 5.41895 9.70521 5.04948 10.0535 4.75977C10.4051 4.47005 10.8803 4.29427 11.4793 4.23242V3.41211H12.1287V4.21777C12.7895 4.24056 13.4162 4.37402 14.0086 4.61816L13.6522 5.51172C13.1411 5.3099 12.6333 5.18945 12.1287 5.15039V6.92773L12.4998 7.06934C13.1183 7.30697 13.5464 7.55762 13.784 7.82129C14.0216 8.08496 14.1404 8.40723 14.1404 8.78809ZM12.9881 8.86133C12.9881 8.67253 12.9214 8.5179 12.7879 8.39746C12.6577 8.27376 12.438 8.15495 12.1287 8.04102V9.59863C12.7016 9.51074 12.9881 9.26497 12.9881 8.86133ZM10.6785 5.8584C10.6785 6.04395 10.7355 6.19857 10.8494 6.32227C10.9666 6.44596 11.1766 6.56803 11.4793 6.68848V5.16992C11.2189 5.20898 11.0203 5.28874 10.8836 5.40918C10.7469 5.52962 10.6785 5.67936 10.6785 5.8584Z" fill="#737373"/>
<path d="M19.7776 17.1429H10.6095H8.80645V16.5714H21L19.7776 17.1429Z" fill="#737373"/>
<path d="M21 16H8.80645V14.8571H14.0323L15.1935 14.2857L16.3548 14.8571L17.5161 14.2857L18.6774 14.8571L19.8387 14.2857L21 16Z" fill="#737373"/>
</svg>
