<svg width="16" height="15" viewBox="0 0 16 15" fill="none" xmlns="http://www.w3.org/2000/svg">
<path fill-rule="evenodd" clip-rule="evenodd" d="M3.5 15C5.43298 15 7 13.433 7 11.5C7 9.56702 5.43298 8 3.5 8C1.56702 8 0 9.56702 0 11.5C0 13.433 1.56702 15 3.5 15ZM1.5 12C1.77615 12 2 11.7762 2 11.5C2 11.2238 1.77615 11 1.5 11C1.22385 11 1 11.2238 1 11.5C1 11.7762 1.22385 12 1.5 12Z" fill="white"/>
<path d="M10.334 5.78809C10.334 6.26009 10.1615 6.64909 9.81641 6.95508C9.47135 7.26107 8.97331 7.44987 8.32227 7.52148V8.58105H7.67285V7.55078C6.86556 7.53776 6.20312 7.41406 5.68555 7.17969V6.14941C5.96549 6.28613 6.29264 6.40169 6.66699 6.49609C7.04134 6.58724 7.37663 6.63444 7.67285 6.6377V4.81152L7.2627 4.66016C6.72884 4.45508 6.33822 4.21094 6.09082 3.92773C5.84668 3.64128 5.72461 3.28809 5.72461 2.86816C5.72461 2.41895 5.89876 2.04948 6.24707 1.75977C6.59863 1.47005 7.07389 1.29427 7.67285 1.23242V0.412109H8.32227V1.21777C8.98307 1.24056 9.6097 1.37402 10.2021 1.61816L9.8457 2.51172C9.33464 2.3099 8.82682 2.18945 8.32227 2.15039V3.92773L8.69336 4.06934C9.31185 4.30697 9.73991 4.55762 9.97754 4.82129C10.2152 5.08496 10.334 5.40723 10.334 5.78809ZM9.18164 5.86133C9.18164 5.67253 9.11491 5.5179 8.98145 5.39746C8.85124 5.27376 8.63151 5.15495 8.32227 5.04102V6.59863C8.89518 6.51074 9.18164 6.26497 9.18164 5.86133ZM6.87207 2.8584C6.87207 3.04395 6.92904 3.19857 7.04297 3.32227C7.16016 3.44596 7.37012 3.56803 7.67285 3.68848V2.16992C7.41243 2.20898 7.21387 2.28874 7.07715 2.40918C6.94043 2.52962 6.87207 2.67936 6.87207 2.8584Z" fill="white"/>
<path d="M14.4474 12.5H6.55263H5V12H15.5L14.4474 12.5Z" fill="white"/>
<path d="M15.5 11.5H5V10.5H9.5L10.5 10L11.5 10.5L12.5 10L13.5 10.5L14.5 10L15.5 11.5Z" fill="white"/>
</svg>
