<svg width="28" height="25" viewBox="0 0 28 25" fill="none" xmlns="http://www.w3.org/2000/svg">
<path d="M2.99998 10.9749L21.1686 4.9842L15.4724 20.9433L2.99998 10.9749Z" fill="#053E95"/>
<path d="M21.1686 4.9842L21.6816 5.11472C21.7416 4.9465 21.6854 4.76464 21.5366 4.64572C21.3878 4.52679 21.1723 4.49147 20.9808 4.55461L21.1686 4.9842ZM2.99998 10.9749L2.81216 10.5453C2.63848 10.6026 2.5106 10.7324 2.47394 10.8887C2.43728 11.045 2.49703 11.2056 2.63197 11.3134L2.99998 10.9749ZM15.4724 20.9433L15.1044 21.2818C15.2394 21.3897 15.4304 21.4295 15.6096 21.3872C15.7889 21.3449 15.931 21.2264 15.9854 21.0738L15.4724 20.9433ZM20.9808 4.55461L2.81216 10.5453L3.18781 11.4045L21.3564 5.41378L20.9808 4.55461ZM2.63197 11.3134L15.1044 21.2818L15.8405 20.6048L3.36799 10.6364L2.63197 11.3134ZM15.9854 21.0738L21.6816 5.11472L20.6556 4.85368L14.9595 20.8128L15.9854 21.0738Z" fill="#053E95"/>
<path d="M18.5 8L7.57158 16.4611L9.83325 18.2687L18.5 8Z" fill="white"/>
</svg>
